<svg width="44" height="40" viewBox="0 0 44 40" fill="none" xmlns="http://www.w3.org/2000/svg">
<path d="M35.4166 12.3333V8.49998H31.5833V4.66665H35.4166V0.833313H39.25V4.66665H43.0833V8.49998H39.25V12.3333H35.4166ZM4.74996 39.1666C3.69579 39.1666 2.79336 38.7913 2.04267 38.0406C1.29197 37.2899 0.916626 36.3875 0.916626 35.3333V12.3333C0.916626 11.2791 1.29197 10.3767 2.04267 9.62602C2.79336 8.87533 3.69579 8.49998 4.74996 8.49998H10.7875L14.3333 4.66665H25.8333V8.49998H16.0104L12.5125 12.3333H4.74996V35.3333H35.4166V18.0833H39.25V35.3333C39.25 36.3875 38.8746 37.2899 38.1239 38.0406C37.3732 38.7913 36.4708 39.1666 35.4166 39.1666H4.74996ZM20.0833 32.4583C22.4791 32.4583 24.5156 31.6198 26.1927 29.9427C27.8698 28.2656 28.7083 26.2291 28.7083 23.8333C28.7083 21.4375 27.8698 19.401 26.1927 17.7239C24.5156 16.0469 22.4791 15.2083 20.0833 15.2083C17.6875 15.2083 15.651 16.0469 13.9739 17.7239C12.2968 19.401 11.4583 21.4375 11.4583 23.8333C11.4583 26.2291 12.2968 28.2656 13.9739 29.9427C15.651 31.6198 17.6875 32.4583 20.0833 32.4583ZM20.0833 28.625C18.7416 28.625 17.6076 28.1618 16.6812 27.2354C15.7548 26.309 15.2916 25.175 15.2916 23.8333C15.2916 22.4916 15.7548 21.3576 16.6812 20.4312C17.6076 19.5048 18.7416 19.0416 20.0833 19.0416C21.425 19.0416 22.559 19.5048 23.4854 20.4312C24.4118 21.3576 24.875 22.4916 24.875 23.8333C24.875 25.175 24.4118 26.309 23.4854 27.2354C22.559 28.1618 21.425 28.625 20.0833 28.625Z" fill="white"/>
</svg>
