<svg width="39" height="39" viewBox="0 0 39 39" fill="none" xmlns="http://www.w3.org/2000/svg">
<path d="M15.1025 27.451V11.4601L27.5399 19.4556L15.1025 27.451ZM19.5444 39C16.3462 39 13.3479 38.2671 10.5495 36.8013C7.75114 35.3354 5.41913 33.2847 3.55353 30.6492V35.4465H0V24.7859H10.6606V28.3394H6.30752C7.81777 30.5604 9.73519 32.3001 12.0598 33.5587C14.3844 34.8172 16.8793 35.4465 19.5444 35.4465C22.9499 35.4465 26.037 34.4692 28.8058 32.5148C31.5746 30.5604 33.5216 27.9692 34.6469 24.7415L38.1116 25.541C36.779 29.5683 34.41 32.8183 31.0046 35.291C27.5991 37.7637 23.779 39 19.5444 39ZM0.0888383 17.6788C0.296128 15.6948 0.769932 13.7921 1.51025 11.971C2.25057 10.1498 3.27221 8.46925 4.57517 6.92939L7.10706 9.46128C6.15945 10.6754 5.38952 11.971 4.79727 13.3479C4.20501 14.7249 3.83485 16.1686 3.68679 17.6788H0.0888383ZM9.59453 6.9738L7.06264 4.44191C8.63212 3.13895 10.32 2.10991 12.1264 1.35478C13.9328 0.599658 15.8132 0.148064 17.7677 0V3.55353C16.2574 3.70159 14.8212 4.07175 13.459 4.66401C12.0968 5.25626 10.8087 6.0262 9.59453 6.9738ZM29.5387 6.9738C28.3246 6.0262 27.029 5.25626 25.6521 4.66401C24.2751 4.07175 22.8314 3.70159 21.3212 3.55353V0C23.3052 0.177677 25.2079 0.636674 27.029 1.37699C28.8502 2.11731 30.5308 3.13895 32.0706 4.44191L29.5387 6.9738ZM35.4465 17.6788C35.2984 16.1686 34.9282 14.7249 34.336 13.3479C33.7437 11.971 32.9738 10.6754 32.0262 9.46128L34.5581 6.92939C35.861 8.46925 36.8827 10.1498 37.623 11.971C38.3633 13.7921 38.8223 15.6948 39 17.6788H35.4465Z" fill="white"/>
</svg>
